# xmcd
#
# Track frame offsets:
#	150
#	14216
#	27801
#	42691
#	56558
#	69222
#	84158
#	97423
#	114842
#	133765
#	151768
#	171845
#	186734
#	207937
#	227271
#
# Disc length: 3250 seconds
#
# Revision: 1
# Processed by: cddbd v1.5.2PL0 Copyright (c) Steve Scherf et al.
# Submitted via: audiograbber 1.83.01
#
DISCID=ca0cb00f
DTITLE=Various Artist - CB-E9-05
DYEAR=2008
DGENRE=Karaoke
TTITLE0=Aaron Tippin - You've Got To Stand For Something
TTITLE1=Mark Chesnutt - Blame It On Texas
TTITLE2=Dolly Parton - Eagle When She Flies
TTITLE3=Tracy Lawrence - Running Behind
TTITLE4=Randy Travis - Better Class Of Losers
TTITLE5=k.d. lang - Trail Of Broken Hearts
TTITLE6=Sawyer Brown - Dirt Road, The
TTITLE7=Confederate Railroad - Daddy Never Was The Cadillac Kind
TTITLE8=Mary Chapin Carpenter - He Thinks He'll Keep Her
TTITLE9=Alan Jackson - Livin' On Love
TTITLE10=Brooks and Dunn - You're Gonna Miss Me When I'm Gone
TTITLE11=Shania Twain - No One Needs To Know
TTITLE12=Vince Gill - If You Ever Have Forever In Mind
TTITLE13=Kenny Chesney - That's Why I'm Here
TTITLE14=Kathy Mattea - She Came From Ft. Worth
EXTD=
EXTT0=
EXTT1=
EXTT2=
EXTT3=
EXTT4=
EXTT5=
EXTT6=
EXTT7=
EXTT8=
EXTT9=
EXTT10=
EXTT11=
EXTT12=
EXTT13=
EXTT14=
PLAYORDER=
